<svg width="33" height="33" viewBox="0 0 33 33" fill="none" xmlns="http://www.w3.org/2000/svg">
<path d="M16.5 33C25.6127 33 33 25.6127 33 16.5C33 7.3873 25.6127 0 16.5 0C7.3873 0 0 7.3873 0 16.5C0 25.6127 7.3873 33 16.5 33Z" fill="#289FA6"/>
<path d="M15.085 23L15.0666 16.875H12.6666V14.25H15.0666V12.5C15.0666 10.1382 16.4038 9 18.3301 9C19.2528 9 20.0459 9.07514 20.277 9.10872V11.5769L18.941 11.5776C17.8934 11.5776 17.6905 12.1221 17.6905 12.9211V14.25H20.6666L19.8666 16.875H17.6905V23H15.085Z" fill="white"/>
</svg>
