<svg width="33" height="33" viewBox="0 0 33 33" fill="none" xmlns="http://www.w3.org/2000/svg">
<path d="M16.5 33C25.6127 33 33 25.6127 33 16.5C33 7.3873 25.6127 0 16.5 0C7.3873 0 0 7.3873 0 16.5C0 25.6127 7.3873 33 16.5 33Z" fill="#289FA6"/>
<path d="M20.2011 13.9423C20.6319 13.9423 20.9811 13.5931 20.9811 13.1623C20.9811 12.7315 20.6319 12.3823 20.2011 12.3823C19.7704 12.3823 19.4211 12.7315 19.4211 13.1623C19.4211 13.5931 19.7704 13.9423 20.2011 13.9423Z" fill="white"/>
<path fill-rule="evenodd" clip-rule="evenodd" d="M13.5834 16.5001C13.5834 18.2925 15.041 19.7501 16.8334 19.7501C18.6258 19.7501 20.0834 18.2925 20.0834 16.5001C20.0834 14.7077 18.6258 13.2501 16.8334 13.2501C15.041 13.2501 13.5834 14.7077 13.5834 16.5001ZM15.2084 16.5002C15.2084 15.604 15.9372 14.8752 16.8334 14.8752C17.7296 14.8752 18.4584 15.604 18.4584 16.5002C18.4584 17.3963 17.7296 18.1252 16.8334 18.1252C15.9372 18.1252 15.2084 17.3963 15.2084 16.5002Z" fill="white"/>
<path fill-rule="evenodd" clip-rule="evenodd" d="M13.5834 23H20.0834C21.7539 23 23.3334 21.4205 23.3334 19.75V13.25C23.3334 11.5795 21.7539 10 20.0834 10H13.5834C11.9129 10 10.3334 11.5795 10.3334 13.25V19.75C10.3334 21.4205 11.9129 23 13.5834 23ZM11.9584 13.25C11.9584 12.4903 12.8238 11.625 13.5834 11.625H20.0834C20.8431 11.625 21.7084 12.4903 21.7084 13.25V19.75C21.7084 20.5097 20.8431 21.375 20.0834 21.375H13.5834C12.8091 21.375 11.9584 20.5243 11.9584 19.75V13.25Z" fill="white"/>
</svg>
