<svg width="24" height="23" viewBox="0 0 24 23" fill="none" xmlns="http://www.w3.org/2000/svg">
<path d="M5.06275 15.2708C4.8532 14.9242 4.58299 14.2641 4.13079 13.7745C3.04992 12.6192 1.8367 11.5905 0.777884 10.4188C0.386345 9.98422 -0.0382842 9.14256 0.138184 8.75748C0.375314 8.24038 1.15288 7.91032 1.765 7.64627C2.23375 7.44273 2.80176 7.38772 3.32013 7.41522C6.87708 7.58575 8.89543 5.7594 9.88255 2.50826C10.0535 1.95265 10.3568 1.41905 10.6767 0.923951C11.4763 -0.297288 12.5516 -0.30829 13.2851 0.951457C14.013 2.2002 14.7024 3.48745 15.2152 4.83522C15.7887 6.32601 16.7814 6.98064 18.3199 7.10166C19.6986 7.21168 21.0773 7.40422 22.4339 7.66277C24.0938 7.97633 24.4798 9.09305 23.3328 10.3253C22.2133 11.53 20.8843 12.5532 19.8475 13.8185C19.3457 14.4291 19.0754 15.4303 19.1141 16.2334C19.1913 17.7352 19.649 19.2095 19.7868 20.7113C19.842 21.3439 19.6766 22.2021 19.263 22.6037C18.9597 22.9007 17.8953 22.8567 17.5038 22.5487C13.8035 19.6331 10.2465 19.7486 6.46899 22.5212C4.99106 23.6104 3.93225 22.7797 4.14181 20.9094C4.34585 19.138 4.70982 17.3942 5.06275 15.2708Z" fill="#FEC321"/>
</svg>
