<svg width="20" height="20" viewBox="0 0 20 20" fill="none" xmlns="http://www.w3.org/2000/svg">
<path d="M9.81492 0C10.0629 0 10.3112 0 10.5592 0C10.6223 0.0144531 10.6846 0.0328125 10.748 0.0421875C11.2044 0.109375 11.667 0.149219 12.1171 0.244922C15.9855 1.06719 19.0994 4.24414 19.8394 8.11016C19.895 8.40117 19.9467 8.69297 20 8.98438C20 9.64844 20 10.3125 20 10.9766C19.9812 11.0777 19.9589 11.1781 19.9444 11.2797C19.6894 13.0754 19.0179 14.6973 17.8823 16.116C16.2268 18.184 14.0962 19.4578 11.4665 19.8781C11.1652 19.9262 10.8616 19.9598 10.5592 20C10.3112 20 10.0629 20 9.81492 20C9.72561 19.9859 9.63668 19.9707 9.54698 19.9582C8.92334 19.8695 8.28677 19.832 7.67762 19.6836C5.33388 19.1121 3.43045 17.841 2.00023 15.9121C0.153985 13.4223 -0.422648 10.6422 0.305585 7.62695C0.864198 5.31445 2.15104 3.45703 4.04625 2.02617C5.50076 0.928125 7.14291 0.277344 8.96251 0.0863281C9.24652 0.0566406 9.53092 0.0289063 9.81492 0ZM14.4421 3.78984C11.3631 1.56406 7.01089 1.74648 4.134 5.08594C1.54895 8.08711 1.93833 12.0125 3.76264 14.3863C7.31605 10.8605 10.8718 7.33203 14.4421 3.78984ZM16.2268 5.58125C12.6773 9.13555 9.13801 12.6793 5.60104 16.2211C8.058 18.1238 12.221 18.4578 15.3458 15.4496C18.3496 12.5582 18.296 8.36602 16.2268 5.58125Z" fill="#F44336"/>
</svg>
