<svg width="24" height="21" viewBox="0 0 24 21" fill="none" xmlns="http://www.w3.org/2000/svg">
<path d="M9.59033 12.9609C10.175 11.7675 10.8695 10.6929 11.6531 9.67297C13.3616 7.44867 15.4057 5.56322 17.6604 3.89295C19.2985 2.6797 21.0258 1.60239 22.8351 0.655568C22.9663 0.586571 23.1458 0.504595 23.2659 0.542167C23.4247 0.59272 23.5959 0.73003 23.6732 0.875538C23.7754 1.0675 23.6905 1.27312 23.5151 1.42273C23.17 1.71921 22.8158 2.00545 22.4831 2.31559C17.4215 7.03879 13.8235 12.659 11.8588 19.2758C11.7642 19.5942 11.6786 19.9152 11.5992 20.2377C11.5405 20.4754 11.4453 20.6728 11.1795 20.7357C10.9241 20.7958 10.7556 20.6592 10.5968 20.4891C8.6066 18.3597 6.61429 16.2311 4.62266 14.1024C3.31655 12.7061 2.01181 11.3091 0.701548 9.91616C0.517228 9.7201 0.395039 9.51789 0.515157 9.25284C0.631134 8.99666 0.861707 8.95294 1.11989 8.95362C2.63863 8.95704 4.15807 8.95909 5.67681 8.95157C5.95156 8.95021 6.14831 9.04653 6.32504 9.2501C7.33293 10.406 8.3491 11.5557 9.36321 12.7068C9.43086 12.784 9.49921 12.8598 9.59033 12.9609Z" fill="#00BA00"/>
</svg>
