<svg width="33" height="33" viewBox="0 0 33 33" fill="none" xmlns="http://www.w3.org/2000/svg">
<path d="M16.5 33C25.6127 33 33 25.6127 33 16.5C33 7.3873 25.6127 0 16.5 0C7.3873 0 0 7.3873 0 16.5C0 25.6127 7.3873 33 16.5 33Z" fill="#289FA6"/>
<path d="M14.0526 23.9998C13.7816 23.9541 13.5071 23.9237 13.2405 23.8601C11.6027 23.4693 10.2994 22.0255 10.0488 20.3357C9.72142 18.1296 11.0643 16.0344 13.1701 15.4717C13.7088 15.3277 14.2568 15.2889 14.8108 15.3577C14.8711 15.365 14.9321 15.3653 14.9318 15.4629C14.9282 16.1927 14.9289 16.9221 14.9282 17.6518C14.9282 17.6602 14.9229 17.6686 14.9172 17.6851C14.7894 17.662 14.6612 17.6354 14.5316 17.6163C13.5217 17.4683 12.5201 18.1896 12.3152 19.2107C12.0799 20.3829 12.7957 21.4727 13.9462 21.6946C15.1206 21.9213 16.2861 20.9671 16.2976 19.7434C16.3129 18.0744 16.3054 16.4055 16.3065 14.7361C16.3076 13.2174 16.3069 11.6991 16.3069 10.1804C16.3069 10.1226 16.3069 10.0648 16.3069 9.99939C17.0579 9.99939 17.7904 9.99939 18.514 9.99939C18.7514 12.1316 19.9012 13.3052 22.0006 13.5285C22.0006 14.255 22.0006 15.0048 22.0006 15.7759C20.7308 15.7704 19.591 15.3712 18.5469 14.5793C18.5469 14.6539 18.5469 14.7054 18.5469 14.7566C18.5526 16.362 18.5604 17.967 18.564 19.5723C18.5686 21.6592 17.251 23.3808 15.2684 23.8733C15.0196 23.935 14.7615 23.9584 14.5077 23.9994C14.3556 23.9998 14.2043 23.9998 14.0526 23.9998Z" fill="white"/>
</svg>
