<svg width="50" height="48" viewBox="0 0 50 48" fill="none" xmlns="http://www.w3.org/2000/svg">
<path d="M0.00306797 23.2968C0.381451 22.3711 1.083 22.0504 2.07804 22.0535C10.8657 22.0737 19.6534 22.0656 28.4411 22.0656C28.6487 22.0656 28.8574 22.0656 29.1938 22.0656C29.0036 21.8643 28.8932 21.7399 28.7756 21.6235C26.9808 19.8471 25.187 18.0697 23.3892 16.2963C22.8953 15.8097 22.7132 15.2392 22.9229 14.5786C23.1213 13.9544 23.5805 13.5902 24.2257 13.483C24.8404 13.3808 25.3261 13.6398 25.7526 14.0626C28.2121 16.5017 30.6767 18.9356 33.1403 21.3706C33.5084 21.7348 33.8837 22.0919 34.2519 22.4561C34.9913 23.1845 34.9943 24.1748 34.2601 24.8992C31.4263 27.6963 28.5884 30.4894 25.7587 33.2906C25.3445 33.7003 24.8782 33.9644 24.283 33.8865C23.6357 33.8025 23.1642 33.4555 22.9413 32.8374C22.7143 32.2051 22.839 31.6235 23.3146 31.1439C24.192 30.2588 25.0838 29.3878 25.9694 28.5117C27.0145 27.4778 28.0607 26.4449 29.2184 25.3018C28.9024 25.3018 28.7203 25.3018 28.5373 25.3018C19.7168 25.3018 10.8964 25.2937 2.076 25.3129C1.08095 25.315 0.380429 24.9933 0 24.0696C0.00306797 23.8127 0.00306797 23.5547 0.00306797 23.2968Z" fill="#DC2648"/>
<path d="M26.1299 0C37.6369 0.00606976 47.6865 8.353 49.6408 19.5446C51.8487 32.1879 43.6624 44.1747 30.9947 46.8484C19.6677 49.2399 8.14749 43.1256 3.88914 32.4621C3.5128 31.5193 3.86766 30.6047 4.7451 30.2557C5.6205 29.9077 6.52248 30.3124 6.91314 31.2653C8.46042 35.0326 10.877 38.1292 14.2599 40.4448C18.6931 43.4797 23.6203 44.6623 28.9473 43.8975C37.7708 42.631 44.5326 36.287 46.3407 27.7206C48.6069 16.9832 41.5035 6.11022 30.693 3.76932C20.6352 1.59129 10.9209 6.59176 6.96018 15.9969C6.68918 16.6392 6.2975 17.1107 5.5755 17.2057C4.29616 17.3747 3.38088 16.1789 3.86357 14.964C4.65306 12.9771 5.67981 11.1137 7.00006 9.4233C11.4384 3.74403 17.2829 0.631255 24.5202 0.0849766C25.0561 0.0455232 25.593 0.0283255 26.1299 0Z" fill="#DC2648"/>
</svg>
