<svg width="36" height="49" viewBox="0 0 36 49" fill="none" xmlns="http://www.w3.org/2000/svg">
<path d="M13.3687 48C12.5784 47.8411 11.7693 47.7433 11.0026 47.5122C5.87776 45.9695 2.74129 42.5883 1.49571 37.5225C1.07552 35.8124 0.861669 34.0667 1.09803 32.3052C1.49321 29.3543 4.1507 26.8691 7.18337 26.5891C7.75613 26.5366 8.3339 26.5231 8.99296 26.4864C8.99296 26.3092 8.99296 26.1185 8.99296 25.929C8.99296 20.9879 8.98921 16.0469 8.99546 11.1058C8.99796 9.21839 10.0685 7.72946 11.783 7.19282C14.398 6.37501 16.9679 8.25389 16.9917 11.0288C17.0142 13.5751 16.9967 16.1227 16.9967 18.669C16.9967 18.8291 16.9967 18.9905 16.9967 19.1665C20.0106 18.3206 21.3675 18.823 22.7844 21.296C23.8636 20.6701 25.0142 20.4819 26.2235 20.8706C27.4403 21.2618 28.2532 22.0832 28.7147 23.1737C29.3399 22.994 29.9327 22.7238 30.5468 22.6663C32.9804 22.4414 34.93 24.121 34.9551 26.5219C34.9988 30.8224 35.0339 35.1241 34.9438 39.4222C34.8513 43.8254 31.5997 47.2861 27.1514 47.9169C27.0789 47.9267 27.0126 47.9694 26.9426 47.9976C22.418 48 17.8934 48 13.3687 48ZM8.99296 28.5083C8.48522 28.5083 8.03501 28.4851 7.58855 28.512C5.27122 28.6563 3.26779 30.5254 3.05519 32.7832C2.91388 34.2831 3.11522 35.7659 3.45788 37.2292C4.69971 42.5211 9.25308 46.0563 14.8144 46.0563C18.4499 46.0563 22.0841 46.0612 25.7195 46.0514C26.216 46.0502 26.7212 46.0233 27.2077 45.9316C30.6218 45.2874 32.9291 42.5785 32.9529 39.1789C32.9716 36.4187 32.9579 33.6584 32.9566 30.8982C32.9566 29.4044 32.9741 27.9094 32.9429 26.4155C32.9204 25.3691 32.0124 24.5672 30.9457 24.577C29.8764 24.588 29.0173 25.4107 28.9998 26.4595C28.9835 27.5121 28.9848 28.5634 28.9798 29.6159C28.976 30.2259 28.9998 30.8371 28.9635 31.4446C28.9285 32.0192 28.4996 32.3798 27.9493 32.3688C27.4228 32.359 27.0389 31.9972 26.9776 31.4422C26.9613 31.2918 26.9676 31.1378 26.9676 30.985C26.9651 28.8201 26.9813 26.6539 26.9538 24.489C26.9401 23.4084 26.0397 22.6162 24.9354 22.6321C23.8549 22.648 23.0182 23.4536 23.0095 24.5257C22.992 26.6454 22.9945 28.7651 22.9882 30.8847C22.9882 31.0217 22.992 31.1598 22.987 31.2967C22.9595 31.9629 22.5668 32.3749 21.9678 32.3676C21.3912 32.3614 21.0073 31.9544 20.9773 31.315C20.9698 31.1622 20.9748 31.0107 20.9748 30.8579C20.9748 28.1135 20.9835 25.3679 20.9685 22.6236C20.9623 21.5075 20.0856 20.6677 18.9876 20.6652C17.8859 20.6628 17.0417 21.4977 17.0142 22.6199C17.0042 23.0465 16.9967 23.4731 16.9967 23.901C16.9954 26.341 16.9992 28.7809 16.9942 31.2209C16.9929 31.936 16.6153 32.359 16.0062 32.3676C15.3934 32.3761 14.9883 31.9507 14.9858 31.2539C14.9782 28.1734 14.9795 25.0941 14.9795 22.0136C14.9795 18.323 14.9807 14.6325 14.9807 10.942C14.9807 10.8357 14.9745 10.7281 14.962 10.623C14.8332 9.59612 13.7964 8.82476 12.7485 8.97634C11.6467 9.13526 11.0064 9.91028 11.0064 11.1058C11.0039 18.3793 11.0051 25.6527 11.0051 32.9274C11.0051 33.8601 10.6562 34.3418 9.98717 34.3344C9.32311 34.3259 8.99171 33.8528 8.99171 32.9066C8.99296 31.4593 8.99296 30.0119 8.99296 28.5083Z" fill="#289FA6" stroke="#289FA6" stroke-miterlimit="10"/>
<path d="M22.9987 10.1703C23.0337 12.6026 22.3802 14.6391 20.9493 16.4351C20.4786 17.0257 19.8739 17.1617 19.3857 16.79C18.8937 16.4159 18.8824 15.8866 19.3531 15.2851C21.9346 11.9795 21.4676 7.45403 18.1814 4.79556C15.6788 2.77103 12.8045 2.34278 9.81622 3.60586C6.81542 4.87375 5.20674 7.18939 5.02772 10.3567C4.92256 12.2297 5.52848 13.8993 6.72779 15.3777C7.07081 15.8012 7.0946 16.2078 6.82419 16.5795C6.56129 16.9391 6.18197 17.0871 5.76133 16.9488C5.51471 16.8682 5.27309 16.6805 5.10784 16.4796C2.21096 12.9779 2.29984 7.81612 5.37575 4.4431C8.07358 1.4863 11.5038 0.369979 15.4635 1.34315C19.4408 2.31993 21.8657 4.90021 22.7996 8.74478C22.9261 9.26685 22.9511 9.81298 22.9987 10.1703Z" fill="#289FA6" stroke="#289FA6" stroke-miterlimit="10"/>
</svg>
