<svg width="50" height="48" viewBox="0 0 50 48" fill="none" xmlns="http://www.w3.org/2000/svg">
<g clip-path="url(#clip0_3488_3146)">
<path d="M0 23.9597C0 10.7516 11.2288 -0.00533246 25.0111 1.98319e-06C38.7935 0.00533643 50.0097 10.7703 49.9986 23.981C49.9875 37.1864 38.7406 47.938 24.961 47.9167C11.2023 47.8953 0 37.1451 0 23.9597ZM46.6727 23.9757C46.6866 12.5053 37.0331 3.23001 25.0445 3.19534C13.0643 3.16066 3.34122 12.4546 3.33287 23.949C3.32591 35.4194 12.9808 44.6947 24.9638 44.7293C36.9413 44.7627 46.6588 35.4741 46.6727 23.9757Z" fill="#DC2648"/>
<path d="M23.3371 33.791C22.0415 33.5176 20.8934 33.0815 19.9402 32.252C18.877 31.3278 18.3691 30.1636 18.3454 28.802C18.3301 27.8858 19.0148 27.175 19.9165 27.1389C20.8753 27.1003 21.624 27.7324 21.6644 28.6713C21.6992 29.4874 22.1445 30.0169 22.8764 30.3249C24.2987 30.9251 25.7515 30.9371 27.1612 30.3103C28.5555 29.6901 28.8408 27.8071 27.6107 26.9122C26.8439 26.3548 25.8934 25.9987 24.9805 25.66C23.4804 25.1052 21.9107 24.7131 20.597 23.7596C18.7392 22.4113 17.8486 19.7321 18.6029 17.6223C19.2319 15.8619 20.6443 14.9204 22.4103 14.3736C22.7039 14.2829 23.0045 14.2149 23.3357 14.1282C23.3357 13.6881 23.3273 13.2574 23.3371 12.8266C23.3579 11.8918 24.076 11.1889 25 11.1863C25.9282 11.1849 26.6449 11.8824 26.6658 12.8186C26.6755 13.2494 26.6671 13.6801 26.6671 14.0909C27.3059 14.3029 27.9293 14.4563 28.5041 14.711C30.4606 15.5779 31.6198 16.9968 31.6602 19.1279C31.6769 20.0321 30.9672 20.7376 30.0599 20.7643C29.1414 20.791 28.3872 20.1508 28.3426 19.2426C28.3064 18.5145 27.953 17.9944 27.3045 17.6903C25.7584 16.9675 24.179 16.9475 22.6566 17.725C21.4111 18.3611 21.2538 20.1802 22.4089 21.0297C23.0796 21.5231 23.9104 21.8378 24.7022 22.1566C25.6429 22.534 26.6379 22.7887 27.5786 23.1674C30.2964 24.2597 31.7172 26.2521 31.6616 28.8513C31.6226 30.6917 30.7153 32.0613 29.0579 32.9402C28.3385 33.3216 27.5355 33.5576 26.6699 33.8977C26.6699 34.2098 26.6741 34.6378 26.6685 35.0659C26.656 36.0501 25.9686 36.7423 25.0084 36.7436C24.051 36.7449 23.3524 36.0488 23.3385 35.0699C23.3315 34.6592 23.3371 34.2444 23.3371 33.791Z" fill="#DC2648"/>
</g>
<defs>
<clipPath id="clip0_3488_3146">
<rect width="50" height="47.9167" fill="white"/>
</clipPath>
</defs>
</svg>
