<svg width="33" height="33" viewBox="0 0 33 33" fill="none" xmlns="http://www.w3.org/2000/svg">
<path d="M16.5 33C25.6127 33 33 25.6127 33 16.5C33 7.3873 25.6127 0 16.5 0C7.3873 0 0 7.3873 0 16.5C0 25.6127 7.3873 33 16.5 33Z" fill="#289FA6"/>
<path fill-rule="evenodd" clip-rule="evenodd" d="M22.3638 12.2973C22.9576 12.4545 23.4252 12.9151 23.5846 13.4989C23.8804 14.5643 23.8666 16.7857 23.8666 16.7857C23.8666 16.7857 23.8645 18.9949 23.5777 20.0597C23.4162 20.6427 22.9465 21.1027 22.3534 21.2591C21.2684 21.5381 16.9277 21.5333 16.9277 21.5333C16.9277 21.5333 12.5989 21.5286 11.5028 21.236C10.9083 21.0788 10.4407 20.6182 10.2813 20.0352C9.99723 18.9806 10 16.7599 10 16.7599C10 16.7599 10.0028 14.55 10.2889 13.4846C10.4497 12.9015 10.9305 12.4307 11.5125 12.2749C12.5982 11.9952 16.9381 12 16.9381 12C16.9381 12 21.2788 12.0048 22.3638 12.2973ZM15.5531 14.7247L15.5497 18.8069L19.1608 16.7692L15.5531 14.7247Z" fill="white"/>
</svg>
